<?xml version="1.0" encoding="UTF-8"?>
<svg id="Dark_mode" data-name="Dark mode" xmlns="http://www.w3.org/2000/svg" viewBox="0 0 450 450">
  <defs>
    <style>
      .cls-1 {
        fill: #ea2427;
      }

      .cls-2 {
        fill: #fff;
      }

      .cls-3 {
        fill: #212a5b;
      }

      .cls-4 {
        fill: #3b56a4;
      }
    </style>
  </defs>
  <g id="Round-4" data-name="Round">
    <g>
      <circle class="cls-2" cx="225.9" cy="225.97" r="215.19"/>
      <path class="cls-1" d="m82.01,226.03c0,21.39,4.69,41.69,13.11,59.91l-53.57,37.15c-15.35-28.97-24.04-62-24.04-97.06,0-47.71,16.09-91.63,43.14-126.7l52.63,37.41c-19.57,24.47-31.28,55.52-31.28,89.29Z"/>
      <path class="cls-4" d="m399.72,338.26c-36.94,57.36-101.36,95.34-174.64,95.34s-135.89-36.93-173.07-92.94l52.69-37.29c25.45,39.54,69.86,65.73,120.38,65.73s96.58-27.17,121.78-67.95l52.85,37.1Z"/>
      <path class="cls-4" d="m378.7,86.45l-53.48,37.41h-.01c-25.81-25.28-61.14-40.89-100.14-40.89s-72.45,14.78-98.06,38.9h-.01l-53.4-37.74C111.47,43.71,165.33,18.47,225.08,18.47s115.65,26.22,153.62,67.98Z"/>
      <path class="cls-1" d="m432.64,226.03c0,34.17-8.26,66.42-22.89,94.85l-53.52-37.61c7.66-17.52,11.91-36.88,11.91-57.24,0-32.84-11.07-63.1-29.67-87.25l52.68-37.27c26.06,34.69,41.49,77.8,41.49,124.52Z"/>
    </g>
    <g>
      <path class="cls-1" d="m111.71,229.84c0,2.92.64,5.7,1.79,8.19l-7.32,5.08c-2.1-3.96-3.29-8.48-3.29-13.27,0-6.52,2.2-12.53,5.9-17.32l7.2,5.11c-2.68,3.35-4.28,7.59-4.28,12.21Z"/>
      <path class="cls-4" d="m155.14,245.18c-5.05,7.84-13.86,13.04-23.88,13.04s-18.58-5.05-23.66-12.71l7.2-5.1c3.48,5.41,9.55,8.99,16.46,8.99s13.21-3.71,16.65-9.29l7.23,5.07Z"/>
      <path class="cls-4" d="m152.27,210.76l-7.31,5.11h0c-3.53-3.46-8.36-5.59-13.69-5.59s-9.91,2.02-13.41,5.32h0l-7.3-5.16c5.18-5.53,12.54-8.98,20.71-8.98s15.81,3.59,21,9.29Z"/>
      <path class="cls-1" d="m159.65,229.84c0,4.67-1.13,9.08-3.13,12.97l-7.32-5.14c1.05-2.4,1.63-5.04,1.63-7.83,0-4.49-1.51-8.63-4.06-11.93l7.2-5.1c3.56,4.74,5.67,10.64,5.67,17.02Z"/>
      <path class="cls-3" d="m171.06,219.92v1.55c1.17-1.17,2.43-2.04,3.78-2.62,1.36-.58,2.81-.87,4.35-.87,3.36,0,6.21,1.27,8.56,3.81,2.35,2.54,3.52,5.79,3.52,9.76s-1.21,7.03-3.64,9.61c-2.43,2.58-5.3,3.87-8.63,3.87-1.48,0-2.86-.26-4.14-.79-1.28-.53-2.55-1.39-3.81-2.59v12.13h-6.41v-33.85c0-.71.57-1.28,1.28-1.28h3.84c.71,0,1.28.57,1.28,1.28Zm6.79,4.01c-2.03,0-3.72.69-5.06,2.08-1.34,1.39-2.01,3.2-2.01,5.44s.67,4.13,2.01,5.54c1.34,1.41,3.03,2.12,5.06,2.12s3.63-.72,4.98-2.15c1.35-1.43,2.02-3.26,2.02-5.49s-.66-4.02-1.99-5.43c-1.32-1.41-2.99-2.12-5.01-2.12Z"/>
      <path class="cls-3" d="m197.19,208.71h3.89c.71,0,1.28.57,1.28,1.28v34.37h-6.45v-34.37c0-.71.57-1.28,1.28-1.28Z"/>
      <path class="cls-3" d="m220.31,217.98c2.43,0,4.71.61,6.84,1.82,2.14,1.21,3.8,2.86,5,4.94,1.2,2.08,1.8,4.33,1.8,6.74s-.6,4.7-1.81,6.81c-1.21,2.11-2.85,3.76-4.93,4.95-2.08,1.19-4.37,1.78-6.88,1.78-3.69,0-6.84-1.31-9.45-3.94-2.61-2.62-3.91-5.81-3.91-9.56,0-4.02,1.47-7.37,4.42-10.05,2.58-2.33,5.56-3.5,8.91-3.5Zm.11,6.08c-2.01,0-3.67.7-5.01,2.09-1.33,1.39-2,3.18-2,5.36s.66,4.05,1.98,5.44c1.32,1.39,2.99,2.08,5.01,2.08s3.7-.7,5.04-2.1c1.34-1.4,2.01-3.21,2.01-5.41s-.66-4-1.98-5.38c-1.32-1.38-3-2.07-5.06-2.07Z"/>
      <path class="cls-3" d="m254.97,222.23l-4,4c-1.62-1.61-3.1-2.41-4.42-2.41-.73,0-1.29.15-1.7.46-.41.31-.61.69-.61,1.15,0,.35.13.67.39.96.26.29.9.69,1.93,1.19l2.36,1.18c2.49,1.23,4.2,2.48,5.13,3.76.93,1.28,1.39,2.77,1.39,4.49,0,2.29-.84,4.19-2.52,5.72-1.68,1.53-3.93,2.29-6.75,2.29-3.75,0-6.75-1.47-8.98-4.4l3.97-4.33c.76.88,1.64,1.6,2.66,2.14,1.02.54,1.92.82,2.71.82.85,0,1.54-.2,2.06-.61.52-.41.78-.88.78-1.42,0-.99-.94-1.96-2.81-2.91l-2.18-1.09c-4.16-2.1-6.24-4.72-6.24-7.87,0-2.03.78-3.77,2.35-5.21,1.57-1.44,3.57-2.16,6.02-2.16,1.67,0,3.24.37,4.72,1.1,1.47.73,2.72,1.79,3.75,3.16Z"/>
      <path class="cls-3" d="m276.27,222.23l-4,4c-1.62-1.61-3.1-2.41-4.42-2.41-.73,0-1.29.15-1.7.46-.41.31-.61.69-.61,1.15,0,.35.13.67.39.96.26.29.9.69,1.93,1.19l2.36,1.18c2.49,1.23,4.2,2.48,5.13,3.76.93,1.28,1.39,2.77,1.39,4.49,0,2.29-.84,4.19-2.52,5.72-1.68,1.53-3.93,2.29-6.75,2.29-3.75,0-6.75-1.47-8.98-4.4l3.97-4.33c.76.88,1.64,1.6,2.66,2.14,1.02.54,1.92.82,2.71.82.85,0,1.54-.2,2.06-.61.52-.41.78-.88.78-1.42,0-.99-.94-1.96-2.81-2.91l-2.18-1.09c-4.16-2.1-6.24-4.72-6.24-7.87,0-2.03.78-3.77,2.35-5.21,1.57-1.44,3.57-2.16,6.02-2.16,1.67,0,3.24.37,4.72,1.1,1.47.73,2.72,1.79,3.75,3.16Z"/>
      <path class="cls-3" d="m281.12,244.36h6.45v-24.44c0-.71-.57-1.28-1.28-1.28h-3.89c-.71,0-1.28.57-1.28,1.28v24.44Z"/>
      <path class="cls-3" d="m294.72,218.96h3.89c.71,0,1.28.57,1.28,1.28v1.35c1.46-1.23,2.79-2.09,3.98-2.57,1.19-.48,2.4-.72,3.65-.72,2.55,0,4.71.89,6.49,2.67,1.5,1.51,2.24,3.75,2.24,6.71v17h-6.38v-11.26c0-3.07-.14-5.11-.41-6.12-.28-1.01-.75-1.78-1.44-2.3-.68-.53-1.53-.79-2.54-.79-1.31,0-2.43.44-3.36,1.31-.94.87-1.58,2.08-1.95,3.63-.19.8-.28,2.54-.28,5.22v10.32h-6.45v-24.44c0-.71.57-1.28,1.28-1.28Z"/>
      <path class="cls-3" d="m342.79,218.64h3.87c.71,0,1.28.57,1.28,1.28v20.75c0,4.35-.87,7.55-2.62,9.6-2.35,2.77-5.89,4.16-10.62,4.16-2.52,0-4.64-.32-6.36-.95-1.72-.63-3.17-1.56-4.35-2.78-1.18-1.22-2.06-2.71-2.62-4.46h7.12c.63.72,1.44,1.27,2.44,1.64.99.37,2.17.56,3.52.56,1.73,0,3.13-.27,4.18-.8,1.06-.54,1.8-1.23,2.23-2.08.43-.85.65-2.32.65-4.4-1.13,1.13-2.33,1.95-3.57,2.45-1.25.5-2.66.74-4.23.74-3.45,0-6.37-1.24-8.75-3.74-2.38-2.49-3.57-5.64-3.57-9.46,0-4.08,1.26-7.36,3.78-9.84,2.29-2.24,5.01-3.36,8.18-3.36,1.48,0,2.88.27,4.2.82,1.32.54,2.64,1.44,3.96,2.68v-1.55c0-.71.57-1.28,1.28-1.28Zm-7.97,5.37c-2.03,0-3.71.68-5.04,2.05-1.32,1.36-1.99,3.08-1.99,5.14s.68,3.9,2.03,5.27c1.36,1.37,3.06,2.06,5.11,2.06s3.65-.67,4.95-2.01c1.3-1.34,1.95-3.1,1.95-5.27s-.65-3.89-1.96-5.23c-1.31-1.34-2.99-2.01-5.06-2.01Z"/>
      <path class="cls-1" d="m290.28,210.01s-.05-.04-.08-.04c-.23,0-1.26.17-2.11.44-.05.02-.1.03-.13.03-.07,0-.09-.03-.14-.1-.06-.08-.15-.2-.37-.3-.09-.04-.2-.06-.32-.06-.48,0-1.08.31-1.43.74,0,0,0,0,0,0-.03,0-.14-.12-.32-.57-.13-.33-.27-.75-.35-1.07-.12-.48-.47-1.15-.69-1.59-.1-.19-.17-.34-.19-.4-.01-.04-.04-.07-.07-.07-.02,0-.04.01-.06.03-.22.23-.68,2.19-.65,2.79.02.49.41.82.6.98.02.02.05.04.06.06-.1-.04-.31-.21-.58-.43-.4-.33-1-.82-1.82-1.36-1.14-.75-1.87-1.5-2.31-1.95-.29-.3-.41-.42-.5-.42-.02,0-.06,0-.08.06-.1.26.03,2.96,1.24,4.42.81.97,2.53,1.26,2.75,1.92.05.16-.15.32-.28.49-.35.49-.83,1.17-1.19,2.32-.16.52-1.88,2.35-2.32,2.8-.02.02-.53.53-.47.68,0,.01.02.04.06.04.11,0,.39-.18.83-.54.59-.47.99-.87,1.28-1.15.28-.28.46-.46.58-.47-.01.06-.05.21-.15.6,0,0,0,.03,0,.05v.02h.03s.04-.02.15-.16c.34-.43,1.39-1.73,2.84-2.01.85-.17,1.91-.96,2.28-2.14.56-1.79,1.04-2.92,3.53-3.49.39-.09.39-.11.39-.15Z"/>
    </g>
  </g>
</svg>